<?xml version="1.0" standalone="no"?><!DOCTYPE svg PUBLIC "-//W3C//DTD SVG 1.1//EN" "http://www.w3.org/Graphics/SVG/1.1/DTD/svg11.dtd"><svg class="icon" height="512" viewBox="0 0 1024 1024" version="1.1" xmlns="http://www.w3.org/2000/svg"><path d="M42.656 42.656l0 426.656 426.656 0 0-426.656-426.656 0zM426.656 426.656l-341.344 0 0-341.344 341.344 0 0 341.344zM554.656 42.656l0 426.656 426.656 0 0-426.656-426.656 0zM938.656 426.656l-341.344 0 0-341.344 341.344 0 0 341.344zM42.656 554.656l0 426.656 426.656 0 0-426.656-426.656 0zM426.656 938.656l-341.344 0 0-341.344 341.344 0 0 341.344zM554.656 554.656l0 426.656 426.656 0 0-426.656-426.656 0zM938.656 938.656l-341.344 0 0-341.344 341.344 0 0 341.344z" /></svg>